<svg width="14" height="10" viewBox="0 0 14 10" fill="none" xmlns="http://www.w3.org/2000/svg">
<path d="M9.45 4.64639C9.45 6.06082 7.7 7.12164 7.7 8.18246H6.3C6.3 7.12164 4.55 6.06082 4.55 4.64639C4.55 3.28147 5.649 2.17115 7 2.17115C8.351 2.17115 9.45 3.28147 9.45 4.64639ZM7.7 8.88967H6.3V9.95049H7.7V8.88967ZM14 5C14 3.04809 13.216 1.28006 11.949 0L11.207 0.749646C12.285 1.83876 12.95 3.34512 12.95 5C12.95 6.65488 12.285 8.16124 11.207 9.25035L11.949 10C13.216 8.71994 14 6.95191 14 5ZM1.05 5C1.05 3.34512 1.715 1.83876 2.793 0.749646L2.051 0C0.784 1.28006 0 3.04809 0 5C0 6.95191 0.784 8.71994 2.051 10L2.793 9.25035C1.715 8.16124 1.05 6.65488 1.05 5ZM10.85 5C10.85 6.07497 10.416 7.04385 9.723 7.75106L10.465 8.50071C11.354 7.60255 11.9 6.36492 11.9 5C11.9 3.63508 11.354 2.39745 10.465 1.49929L9.723 2.24894C10.416 2.95615 10.85 3.92504 10.85 5ZM3.535 8.50071L4.277 7.75106C3.577 7.04385 3.15 6.07497 3.15 5C3.15 3.92504 3.584 2.95615 4.277 2.24894L3.535 1.49929C2.646 2.39745 2.1 3.63508 2.1 5C2.1 6.36492 2.646 7.60255 3.535 8.50071Z" fill="#00802F"/>
</svg>
