<svg width="35" height="34" viewBox="0 0 35 34" fill="none" xmlns="http://www.w3.org/2000/svg">
<rect x="1" y="1" width="33" height="32" rx="16" fill="white"/>
<rect x="1" y="1" width="33" height="32" rx="16" stroke="#006CE0" stroke-width="2"/>
<path d="M23.6485 11.35C22.1976 9.9 20.2064 9 17.995 9C13.5722 9 10 12.58 10 17C10 21.42 13.5722 25 17.995 25C21.7273 25 24.8393 22.45 25.7298 19H23.6485C22.828 21.33 20.6066 23 17.995 23C14.6829 23 11.9912 20.31 11.9912 17C11.9912 13.69 14.6829 11 17.995 11C19.656 11 21.137 11.69 22.2176 12.78L18.9956 16H26V9L23.6485 11.35Z" fill="#006CE0"/>
</svg>
