<svg width="17" height="16" viewBox="0 0 17 16" fill="none" xmlns="http://www.w3.org/2000/svg">
<path d="M9.16667 13.3333H7.5V15.8333H9.16667V13.3333Z" fill="#006CE0"/>
<path d="M2.5 6.66669H0V8.33335H2.5V6.66669Z" fill="#006CE0"/>
<path d="M16.6667 6.66669H14.1667V8.33335H16.6667V6.66669Z" fill="#006CE0"/>
<path d="M12.751 11.1619L11.5784 12.3345L13.3461 14.1022L14.5187 12.9296L12.751 11.1619Z" fill="#006CE0"/>
<path d="M3.92131 11.156L2.15356 12.9238L3.32617 14.0964L5.09392 12.3286L3.92131 11.156Z" fill="#006CE0"/>
<path d="M10.8334 4.18333V0H5.83341V4.18333C4.82508 4.95 4.16675 6.14167 4.16675 7.5C4.16675 9.8 6.03341 11.6667 8.33341 11.6667C10.6334 11.6667 12.5001 9.8 12.5001 7.5C12.5001 6.14167 11.8417 4.95 10.8334 4.18333ZM7.50008 1.66667H9.16675V3.41667C8.90008 3.36667 8.61675 3.33333 8.33341 3.33333C8.05008 3.33333 7.76675 3.36667 7.50008 3.41667V1.66667ZM8.33341 10C6.95841 10 5.83341 8.875 5.83341 7.5C5.83341 6.125 6.95841 5 8.33341 5C9.70841 5 10.8334 6.125 10.8334 7.5C10.8334 8.875 9.70841 10 8.33341 10Z" fill="#006CE0"/>
</svg>
