<svg width="19" height="19" viewBox="0 0 19 19" fill="none" xmlns="http://www.w3.org/2000/svg">
<path d="M16.6167 8.33333C16.2333 4.85833 13.475 2.1 10 1.71667V0H8.33333V1.71667C4.85833 2.1 2.1 4.85833 1.71667 8.33333H0V10H1.71667C2.1 13.475 4.85833 16.2333 8.33333 16.6167V18.3333H10V16.6167C13.475 16.2333 16.2333 13.475 16.6167 10H18.3333V8.33333H16.6167ZM9.16667 15C5.94167 15 3.33333 12.3917 3.33333 9.16667C3.33333 5.94167 5.94167 3.33333 9.16667 3.33333C12.3917 3.33333 15 5.94167 15 9.16667C15 12.3917 12.3917 15 9.16667 15Z" fill="#8456CE"/>
<path d="M12.583 6.16669L7.86634 10.875L5.50801 8.51669L4.33301 9.70002L7.86634 13.2334L13.758 7.34169L12.583 6.16669Z" fill="#8456CE"/>
</svg>
