<svg width="17" height="19" viewBox="0 0 17 19" fill="none" xmlns="http://www.w3.org/2000/svg">
<path d="M4.16667 1.66667H1.66667V4.16667H0V0H4.16667V1.66667ZM16.6667 4.16667V0H12.5V1.66667H15V4.16667H16.6667ZM4.16667 16.6667H1.66667V14.1667H0V18.3333H4.16667V16.6667ZM15 14.1667V16.6667H12.5V18.3333H16.6667V14.1667H15ZM12.5 4.16667H4.16667V14.1667H12.5V4.16667ZM14.1667 14.1667C14.1667 15.0833 13.4167 15.8333 12.5 15.8333H4.16667C3.25 15.8333 2.5 15.0833 2.5 14.1667V4.16667C2.5 3.25 3.25 2.5 4.16667 2.5H12.5C13.4167 2.5 14.1667 3.25 14.1667 4.16667V14.1667ZM10.8333 5.83333H5.83333V7.5H10.8333V5.83333ZM10.8333 8.33333H5.83333V10H10.8333V8.33333ZM10.8333 10.8333H5.83333V12.5H10.8333V10.8333Z" fill="#8456CE"/>
</svg>
