<svg width="14" height="16" viewBox="0 0 14 16" fill="none" xmlns="http://www.w3.org/2000/svg">
<path d="M3.5 1.45455H1.4V3.63636H0V0H3.5V1.45455ZM14 3.63636V0H10.5V1.45455H12.6V3.63636H14ZM3.5 14.5455H1.4V12.3636H0V16H3.5V14.5455ZM12.6 12.3636V14.5455H10.5V16H14V12.3636H12.6ZM10.5 3.63636H3.5V12.3636H10.5V3.63636ZM11.9 12.3636C11.9 13.1636 11.27 13.8182 10.5 13.8182H3.5C2.73 13.8182 2.1 13.1636 2.1 12.3636V3.63636C2.1 2.83636 2.73 2.18182 3.5 2.18182H10.5C11.27 2.18182 11.9 2.83636 11.9 3.63636V12.3636ZM9.1 5.09091H4.9V6.54545H9.1V5.09091ZM9.1 7.27273H4.9V8.72727H9.1V7.27273ZM9.1 9.45455H4.9V10.9091H9.1V9.45455Z" fill="#6678A2"/>
</svg>
