<svg width="14" height="13" viewBox="0 0 14 13" fill="none" xmlns="http://www.w3.org/2000/svg">
<path d="M12.6891 5.90909C12.3964 3.445 10.29 1.48909 7.63636 1.21727V0H6.36364V1.21727C3.71 1.48909 1.60364 3.445 1.31091 5.90909H0V7.09091H1.31091C1.60364 9.555 3.71 11.5109 6.36364 11.7827V13H7.63636V11.7827C10.29 11.5109 12.3964 9.555 12.6891 7.09091H14V5.90909H12.6891ZM7 10.6364C4.53727 10.6364 2.54545 8.78682 2.54545 6.5C2.54545 4.21318 4.53727 2.36364 7 2.36364C9.46273 2.36364 11.4545 4.21318 11.4545 6.5C11.4545 8.78682 9.46273 10.6364 7 10.6364Z" fill="#6678A2"/>
<path d="M8.62666 4.66669L6.12445 7.33178L4.87334 5.99688L4.25 6.66669L6.12445 8.66669L9.25 5.33178L8.62666 4.66669Z" fill="#6678A2"/>
</svg>
